<svg version="1.1" viewBox="0.0 0.0 104.44094488188976 100.0" fill="none" stroke="none" stroke-linecap="square" stroke-miterlimit="10" xmlns:xlink="http://www.w3.org/1999/xlink" xmlns="http://www.w3.org/2000/svg"><clipPath id="p.0"><path d="m0 0l104.44095 0l0 100.0l-104.44095 0l0 -100.0z" clip-rule="nonzero"/></clipPath><g clip-path="url(#p.0)"><path fill="#000000" fill-opacity="0.0" d="m0 0l104.44095 0l0 100.0l-104.44095 0z" fill-rule="evenodd"/><path fill="#000000" fill-opacity="0.0" d="m33.412605 -16.683544l53.16535 0l0 87.02362l-53.16535 0z" fill-rule="evenodd"/><path fill="#cc0000" d="m76.86573 30.709583q0 -4.03125 -2.609375 -4.296875q0.3125 -0.875 1.234375 -0.875q2.359375 0 3.125 2.765625q0.25 1.03125 0.25 2.0625q0 2.453125 -1.4375 5.0625q-2.8125 5.125 -9.0625 6.296875q-1.53125 0.3125 -3.09375 0.3125q-1.5625 0 -2.125 -0.109375q-0.453125 5.171875 -3.734375 9.015625q4.65625 4.90625 9.578125 4.90625q2.96875 0 4.453125 -1.171875q1.484375 -1.171875 1.484375 -2.65625q0 -0.21875 0.21875 -0.3125q0.234375 -0.109375 0.4375 0q0.203125 0.09375 0.203125 0.40625q0 1.6875 -1.765625 3.328125q-1.765625 1.640625 -5.09375 1.640625q-5.3125 0 -10.6875 -4.859375q-3.90625 3.421875 -9.28125 3.421875q-4.140625 0 -6.25 -1.921875q-2.09375 -1.921875 -2.09375 -5.109375q0 -3.203125 2.171875 -5.890625q2.1875 -2.6875 5.96875 -5.40625q-1.015625 -3.28125 -1.015625 -5.734375q0 -2.453125 0.609375 -4.34375q0.609375 -1.90625 2.453125 -3.046875q1.84375 -1.15625 4.453125 -1.15625q2.625 0 3.84375 1.203125q1.234375 1.203125 1.234375 3.203125q0 1.375 -0.46875 2.203125q-0.453125 0.8125 -0.734375 1.28125q-0.28125 0.453125 -0.921875 1.078125q-0.640625 0.609375 -1.0 0.9375q-0.359375 0.328125 -1.234375 1.0q-0.859375 0.65625 -1.21875 0.921875q-0.359375 0.25 -1.421875 0.96875q-1.046875 0.71875 -1.34375 0.96875q2.0 7.78125 6.65625 13.265625q2.921875 -3.484375 3.421875 -8.390625q-3.53125 -1.03125 -3.53125 -3.640625q0 -1.078125 1.03125 -1.640625q0.5 -0.296875 1.390625 -0.296875q0.90625 0 1.5625 1.28125q0.671875 1.265625 0.671875 3.3125q0.828125 0.15625 1.90625 0.15625q6.953125 0 10.125 -5.015625q1.640625 -2.5625 1.640625 -5.125zm-27.75 23.71875q4.875 0 8.25 -3.03125q-5.328125 -5.265625 -8.09375 -12.59375q-5.890625 4.765625 -5.890625 10.296875q0 2.359375 1.359375 3.84375q1.359375 1.484375 4.375 1.484375zm6.96875 -30.15625q-4.859375 0 -4.859375 6.953125q0 1.890625 0.40625 4.09375q3.53125 -2.453125 5.3125 -4.265625q1.796875 -1.828125 1.796875 -4.015625q0 -2.765625 -2.65625 -2.765625zm4.65625 13.0q-0.921875 0 -0.921875 1.078125q0 1.171875 2.3125 2.09375q-0.109375 -3.171875 -1.390625 -3.171875z" fill-rule="nonzero"/><path fill="#000000" fill-opacity="0.0" d="m0 -6.0l59.244095 0l0 51.02362l-59.244095 0z" fill-rule="evenodd"/><path fill="#000000" d="m45.40625 14.173748l-8.046875 34.90625l-4.640625 0l3.96875 -17.15625l-17.421875 0l-3.953125 17.15625l-4.640625 0l8.03125 -34.90625l4.640625 0l-3.15625 13.8125l17.40625 0l3.171875 -13.8125l4.640625 0z" fill-rule="nonzero"/><path fill="#000000" fill-opacity="0.0" d="m49.725105 9.226851l45.637794 0l0 51.02362l-45.637794 0z" fill-rule="evenodd"/><path fill="#000000" d="m88.287605 64.30685l-4.71875 0l-1.171875 -9.828121l-15.046875 0l-5.71875 9.828121l-4.90625 0l20.78125 -34.90625l6.140625 0l4.640625 34.90625zm-6.40625 -13.624996l-2.171875 -17.21875l-10.125 17.21875l12.296875 0z" fill-rule="nonzero"/></g></svg>